<svg width="131" height="175" viewBox="0 0 131 175" fill="none" xmlns="http://www.w3.org/2000/svg">
<path d="M71.0506 5.8325C71.0506 0.014822 63.5585 -2.17781 60.2586 2.645C29.9846 46.896 73.0061 48.8882 73.0061 70.3989C73.0061 79.1083 65.8905 86.1555 57.1542 86.0406C48.5572 85.9306 41.7177 78.7636 41.7177 70.1667V49.2646C41.7177 43.9603 35.2474 41.3863 31.5906 45.2314C25.0469 52.105 18.2515 63.8797 18.2515 78.221C18.2515 104.1 39.3051 125.153 65.184 125.153C91.0629 125.153 112.117 104.1 112.117 78.221C112.117 36.5953 71.0506 31.0441 71.0506 5.8325Z" fill="white"/>
<path d="M130.053 169.162C129.574 170.781 128.585 172.201 127.233 173.212C125.881 174.222 124.238 174.768 122.55 174.768C121.8 174.766 121.054 174.659 120.334 174.448L65.188 158.152L10.0422 174.448C9.32223 174.659 8.57608 174.766 7.82596 174.768C5.94473 174.768 4.12617 174.091 2.70362 172.86C1.28107 171.629 0.349818 169.927 0.080556 168.065C-0.188706 166.203 0.222061 164.307 1.23757 162.723C2.25307 161.139 3.80528 159.975 5.6097 159.443L37.5825 149.998L5.6097 140.552C3.6896 139.908 2.09429 138.544 1.15944 136.747C0.224591 134.951 0.0230825 132.861 0.597311 130.919C1.17154 128.977 2.47674 127.333 4.23829 126.334C5.99984 125.334 8.0804 125.057 10.0422 125.56L65.188 141.856L120.334 125.56C121.33 125.226 122.384 125.095 123.432 125.177C124.48 125.259 125.5 125.551 126.433 126.037C127.365 126.522 128.191 127.19 128.859 128.001C129.527 128.812 130.026 129.75 130.324 130.758C130.622 131.766 130.713 132.824 130.594 133.868C130.474 134.912 130.144 135.922 129.626 136.836C129.107 137.75 128.409 138.55 127.574 139.189C126.739 139.827 125.784 140.291 124.766 140.552L92.7935 149.998L124.766 159.443C125.752 159.734 126.67 160.216 127.469 160.862C128.268 161.508 128.932 162.305 129.423 163.207C129.914 164.11 130.222 165.1 130.33 166.122C130.438 167.143 130.344 168.176 130.053 169.162Z" fill="white"/>
</svg>
