<svg width="158" height="158" viewBox="0 0 158 158" fill="none" xmlns="http://www.w3.org/2000/svg">
<path d="M88.764 0C64.8964 0 43.9875 16.985 39.4507 39.5C17.7528 39.5 0 57.275 0 79C0 89.4675 3.94507 98.5525 10.4544 105.465C15.583 101.12 22.2896 98.75 29.588 98.75C33.5331 98.75 37.2809 99.7375 40.6342 101.318C43.9875 88.6775 55.231 79 69.0387 79C82.6492 79 94.0899 88.6775 97.4432 101.318C100.797 99.935 104.544 98.75 108.489 98.75C120.916 98.75 131.174 106.453 135.71 117.315C148.335 113.958 158 102.502 158 88.875C158 76.0375 149.715 63.3975 138.275 59.25V49.375C138.275 42.891 136.999 36.4705 134.521 30.48C132.043 24.4896 128.41 19.0465 123.831 14.4616C119.252 9.87671 113.816 6.23977 107.833 3.75845C101.85 1.27712 95.4372 0 88.9613 0L88.764 0ZM26.432 118.5C24.3906 119.187 22.6299 120.524 21.4189 122.307C20.2079 124.091 19.6131 126.222 19.7253 128.375V148.125C19.7253 150.744 20.7644 153.256 22.6141 155.108C24.4637 156.96 26.9723 158 29.588 158C32.2038 158 34.7124 156.96 36.562 155.108C38.4116 153.256 39.4507 150.744 39.4507 148.125V128.375C39.4746 126.914 39.1744 125.466 38.5717 124.135C37.9691 122.805 37.079 121.625 35.9658 120.68C34.8525 119.735 33.5437 119.05 32.1339 118.673C30.724 118.296 29.2481 118.237 27.8127 118.5C27.4186 118.476 27.0234 118.476 26.6292 118.5H26.432ZM105.333 118.5C103.292 119.187 101.531 120.524 100.32 122.307C99.1093 124.091 98.5145 126.222 98.6267 128.375V148.125C98.6267 150.744 99.6658 153.256 101.515 155.108C103.365 156.96 105.874 158 108.489 158C111.105 158 113.614 156.96 115.463 155.108C117.313 153.256 118.352 150.744 118.352 148.125V128.375C118.376 126.914 118.076 125.466 117.473 124.135C116.87 122.805 115.98 121.625 114.867 120.68C113.754 119.735 112.445 119.05 111.035 118.673C109.625 118.296 108.15 118.237 106.714 118.5C106.32 118.476 105.925 118.476 105.531 118.5H105.333Z" fill="white"/>
<path fill-rule="evenodd" clip-rule="evenodd" d="M74.1426 91.5466C74.1429 90.9871 73.9569 90.443 73.6135 89.9986C73.27 89.5543 72.7881 89.2343 72.2425 89.0882C71.6968 88.9422 71.1177 88.9782 70.5948 89.1907C70.0719 89.4032 69.6343 89.7803 69.3497 90.2638L51.3505 120.808C51.1224 121.195 51.0016 121.634 51 122.082C50.9985 122.53 51.1163 122.97 51.3417 123.359C51.5671 123.747 51.892 124.07 52.2836 124.294C52.6752 124.518 53.1196 124.636 53.5721 124.636H63.8574V142.453C63.8571 143.013 64.0431 143.557 64.3865 144.001C64.73 144.446 65.2119 144.766 65.7575 144.912C66.3032 145.058 66.8823 145.022 67.4052 144.809C67.9281 144.597 68.3657 144.22 68.6503 143.736L86.6495 113.192C86.8776 112.805 86.9984 112.366 87 111.918C87.0015 111.47 86.8837 111.03 86.6583 110.641C86.4329 110.253 86.108 109.93 85.7164 109.706C85.3248 109.482 84.8804 109.364 84.4279 109.364H74.1426V91.5466Z" fill="white"/>
</svg>
