<svg width="189" height="153" viewBox="0 0 189 153" fill="none" xmlns="http://www.w3.org/2000/svg">
<path d="M189 76.5279L161.55 66.3542C159.21 56.0004 153.36 50.0582 153.36 50.0582C149.858 46.5493 145.698 43.7655 141.119 41.8661C136.54 39.9668 131.632 38.9892 126.675 38.9892C121.718 38.9892 116.81 39.9668 112.231 41.8661C107.652 43.7655 103.492 46.5493 99.99 50.0582L86.67 63.3831L27 0C18 36.0131 27 72.0262 49.05 101.017L0 148.554C0 148.554 80.01 166.561 126.63 130.097C151.47 110.65 157.05 99.3062 160.56 87.3318L189 76.5279ZM141.39 78.5086C137.88 82.0199 132.12 82.0199 128.61 78.5086C127.776 77.6757 127.114 76.6863 126.662 75.5972C126.21 74.508 125.978 73.3404 125.978 72.1613C125.978 70.9821 126.21 69.8146 126.662 68.7254C127.114 67.6363 127.776 66.6469 128.61 65.814C132.12 62.3027 137.88 62.3027 141.39 65.814C144.9 69.3252 144.9 74.9973 141.39 78.5086Z" fill="white"/>
</svg>
