<svg width="85" height="82" viewBox="0 0 85 82" fill="none" xmlns="http://www.w3.org/2000/svg">
<path d="M28.6013 49.7076L0.188621 12.3637C-0.349662 11.6383 0.373784 10.6538 1.22674 10.9492L49.7117 28.405L61.6491 16.3594C65.3836 12.6076 69.9408 13.0083 72.4906 14.0899C75.0687 15.1836 77.3291 19.0548 77.752 20.6363L84.5969 24.4579C85.2293 24.8829 85.0917 25.8502 84.3652 26.0819L70.5925 30.1079C69.4188 53.2368 58.7401 78.1092 25.0033 65.8622L11.7142 78.3298C8.72324 81.2357 3.66722 82.0178 0.347473 79.6552C-0.0956999 79.3395 -0.103788 78.6728 0.279688 78.2862L28.6013 49.7076ZM66.6767 21.7452C67.0592 22.9422 68.3402 23.6039 69.5371 23.2215C70.7341 22.839 71.3958 21.5591 71.0134 20.3611C70.6309 19.1641 69.351 18.5024 68.153 18.8849C66.955 19.2673 66.2943 20.5483 66.6767 21.7452Z" fill="white"/>
<path d="M27.057 15.729L22.7679 2.10294C22.5423 1.28034 23.4741 0.629743 24.1693 1.12553L48.4922 23.1648L27.057 15.729Z" fill="white"/>
</svg>
