<svg width="162" height="228" viewBox="0 0 162 228" fill="none" xmlns="http://www.w3.org/2000/svg">
<path d="M142.639 107.761C142.639 133.891 120.569 148.191 96.0885 152.261C103.349 148.161 108.629 140.901 108.749 130.661C108.779 130.171 108.799 129.671 108.799 129.151C108.799 111.831 90.0485 79.7906 86.1885 73.3606C84.7585 70.9806 82.2485 69.5406 79.4885 69.4906C76.6885 69.4106 74.1485 70.7906 72.6285 73.1306C71.7885 74.4206 51.9685 105.201 52.3385 130.321C52.3385 140.531 57.4485 147.831 64.5685 152.021C54.8585 150.261 45.9785 146.941 38.6785 142.241C25.4785 133.751 18.4985 121.601 18.4985 107.101C18.4985 100.941 19.0885 96.0406 19.6985 90.8506C20.7585 81.9006 21.8585 72.6506 20.1485 55.1106C19.9885 53.4906 20.8285 51.9406 22.2685 51.1906C23.6985 50.4306 25.4585 50.6106 26.6985 51.6606L28.0885 52.8106C37.0085 60.2306 43.5285 65.9006 47.9685 70.1206C52.0085 21.1006 79.8785 1.55063 81.1285 0.690632C82.2985 -0.0993676 83.7985 -0.219368 85.0785 0.370632C86.3585 0.970632 87.2285 2.20063 87.3685 3.60063C87.3785 3.77063 89.2385 20.8106 100.849 40.6806C109.659 55.7406 111.579 65.8706 113.039 74.7206C115.619 70.1406 118.739 65.4406 122.369 60.6406C123.229 59.5006 124.639 58.9106 126.049 59.0806C127.469 59.2606 128.679 60.1706 129.239 61.4906L130.359 64.1006C135.829 76.8706 142.639 92.7806 142.639 107.761Z" fill="white"/>
<path d="M100.758 130.181C100.758 130.281 100.748 130.371 100.748 130.471C100.668 142.691 90.2181 148.251 80.5381 148.251C70.8081 148.251 60.3381 142.641 60.3381 130.261C60.0561 111.39 72.7481 88.3846 77.5541 80.3696C78.3511 79.0406 80.2741 79.0506 81.0551 80.3896C89.4931 94.8796 101.618 119.005 100.758 130.181Z" fill="white"/>
<path d="M150.509 179.571L139.469 183.591L92.2686 166.411L139.469 149.231C147.849 146.181 157.109 150.501 160.159 158.881C163.209 167.261 158.889 176.521 150.509 179.571Z" fill="white"/>
<path d="M68.8682 209.281L21.6682 192.101L10.6282 196.121L10.6292 196.125L10.6272 196.126C2.24924 199.176 -2.07076 208.439 0.979238 216.816C4.02824 225.194 13.2912 229.514 21.6702 226.465C21.6992 226.455 21.7252 226.44 21.7532 226.43L68.8682 209.281Z" fill="white"/>
<path d="M150.509 196.125L150.506 196.124L150.507 196.121L127.767 187.851L80.5682 170.671L21.6682 149.231C13.2882 146.181 4.02824 150.501 0.978241 158.881C-2.07176 167.261 2.24824 176.521 10.6282 179.571L33.3682 187.851L80.5682 205.021L139.386 226.431C139.414 226.441 139.439 226.455 139.466 226.465C147.845 229.514 157.108 225.194 160.156 216.816C163.207 208.439 158.887 199.175 150.509 196.125Z" fill="white"/>
</svg>
