<svg width="72" height="72" viewBox="0 0 72 72" fill="none" xmlns="http://www.w3.org/2000/svg">
<path d="M16.922 14.7785L0 69.4505L26.375 43.0595C25.1562 41.3564 24.4844 39.3251 24.4844 37.1845C24.4688 34.4657 25.5313 31.9189 27.4375 29.997C31.3906 26.0439 37.8435 26.0595 41.8125 30.0282C45.7815 33.997 45.7969 40.4502 41.8438 44.4032C39.9375 46.3094 37.3906 47.3563 34.6875 47.3563H34.6563C32.5157 47.3563 30.4844 46.6844 28.7813 45.4657L2.4223 71.8717L57.0783 54.9497L64.0158 30.2617L41.5938 7.82373L16.922 14.7785Z" fill="white"/>
<path d="M34.6877 43.9655H34.7034C36.5003 43.9655 38.1722 43.278 39.4378 42.0124C42.0628 39.3874 42.0472 35.1062 39.4065 32.4655C38.0784 31.1374 36.344 30.4811 34.594 30.4811C32.8752 30.4811 31.1565 31.1373 29.8596 32.4342C28.594 33.6998 27.8908 35.3873 27.9065 37.1998C27.9065 38.9967 28.6253 40.6998 29.9065 41.981C31.1721 43.2466 32.8753 43.9499 34.6877 43.9655Z" fill="white"/>
<path d="M71.376 19.4965L52.376 0.480465C51.7354 -0.160155 50.6104 -0.160155 49.9541 0.480465L44.5166 5.91796L65.9386 27.34L71.3761 21.9025C71.7042 21.5743 71.8761 21.1525 71.8761 20.6994C71.8761 20.2463 71.7041 19.8089 71.376 19.4965Z" fill="white"/>
</svg>
