<svg width="94" height="94" viewBox="0 0 94 94" fill="none" xmlns="http://www.w3.org/2000/svg">
<path d="M14.3304 22.77C16.1702 9.895 27.2404 0 40.6234 0C49.9515 0 58.1544 4.8086 62.8894 12.074C64.7019 11.3396 66.6785 10.9373 68.7488 10.9373C76.8582 10.9373 83.5258 17.1131 84.2998 25.0193C89.9756 28.617 93.749 34.9607 93.749 42.1873C93.749 53.4063 84.6552 62.4993 73.437 62.4993H20.312C9.093 62.4993 0 53.4055 0 42.1873C0 33.0506 6.0312 25.3243 14.332 22.7693L14.3304 22.77Z" fill="white"/>
<path d="M43.4945 67.707C44.9359 68.6601 45.3304 70.5976 44.3774 72.0351L37.6586 82.1911C36.7054 83.6325 34.7641 84.027 33.3266 83.0739C31.8891 82.1208 31.4946 80.1833 32.4437 78.7458L39.1664 68.5898C40.1196 67.1484 42.057 66.7539 43.4945 67.707Z" fill="white"/>
<path d="M78.2836 67.707C79.725 68.6601 80.1195 70.5976 79.1664 72.0351L72.4476 82.1911C71.4945 83.6325 69.5531 84.027 68.1156 83.0739C66.6781 82.1208 66.2836 80.1833 67.2328 78.7458L73.9555 68.5898C74.9086 67.1484 76.8461 66.7539 78.2836 67.707Z" fill="white"/>
<path d="M26.9822 72.039C27.9353 70.5976 27.5408 68.6601 26.0994 67.707C24.6619 66.7539 22.7244 67.1484 21.7713 68.5898L8.33027 88.9018C7.37715 90.3393 7.77168 92.2768 9.21308 93.2299C10.6506 94.183 12.5881 93.7885 13.5412 92.3471L26.9822 72.039Z" fill="white"/>
<path d="M60.8894 67.707C62.3308 68.6601 62.7253 70.5976 61.7722 72.039L48.3312 92.348C47.3781 93.7894 45.4406 94.1839 44.0031 93.2308C42.5617 92.2777 42.1672 90.3402 43.1203 88.9027L56.5613 68.5907C57.5144 67.1493 59.4519 66.7539 60.8894 67.707Z" fill="white"/>
</svg>
