<svg width="96" height="83" viewBox="0 0 96 83" fill="none" xmlns="http://www.w3.org/2000/svg">
<path d="M58.9392 29C47.0392 19.5 64.5392 17 72.2392 8.7C79.9392 0.400001 69.8392 0 69.8392 0C69.8392 0 79.4392 3.1 57.2392 10.5C35.0392 17.9 34.0392 30 39.1392 33.9C45.1392 38.5 54.7392 43.7 33.1392 54.2C19.0392 61.1 12.7392 74.2 10.5392 80C10.0392 81.4 11.0392 82.8 12.5392 82.8L59.0392 83C60.7392 83 61.7392 81.2 60.8392 79.8C57.9392 75 54.7392 65.8 66.2392 58C89.7392 42.1 68.5392 36.8 58.9392 29Z" fill="white"/>
<path d="M15.6395 54.2L15.2395 42.4H23.5395C24.8395 42.4 25.5395 40.9 24.7395 39.9L20.0395 34H22.3395C23.4395 34 24.0395 32.7 23.3395 31.9L18.8395 26.5H20.2395C20.9395 26.5 21.3395 25.6 20.9395 25.1L13.2395 15.5C12.8395 15.1 12.2395 15.1 11.8395 15.5L4.13952 25.1C3.63952 25.6 4.03952 26.5 4.83952 26.5H6.23952L1.73952 32C1.03952 32.8 1.63952 34.1 2.73952 34.1H5.03952L0.33952 40C-0.46048 41 0.23952 42.5 1.53952 42.5H9.93952L9.53952 54.2C9.53952 55 11.3395 55.1 12.5395 55.1C13.7395 55.1 15.6395 55 15.6395 54.2Z" fill="white"/>
<path d="M94.8391 24.1L91.6391 20.1H93.2391C93.9391 20.1 94.3391 19.2 93.9391 18.7L90.9391 14.9H91.9391C92.4391 14.9 92.7391 14.3 92.4391 13.9L87.1391 7.39999C86.9391 7.09999 86.4391 7.09999 86.2391 7.39999L80.9391 13.9C80.6391 14.3 80.9391 14.9 81.4391 14.9H82.4391L79.4391 18.7C78.9391 19.3 79.3391 20.1 80.1391 20.1H81.7391L78.5391 24.1C78.0391 24.8 78.4391 25.8 79.3391 25.8H85.0391L84.7391 33.8C84.7391 34.4 86.0391 34.4 86.8391 34.4C87.6391 34.4 88.9391 34.4 88.9391 33.8L88.6391 25.8H94.3391C94.8391 25.8 95.3391 24.8 94.8391 24.1Z" fill="white"/>
</svg>
