<svg width="94" height="94" viewBox="0 0 94 94" fill="none" xmlns="http://www.w3.org/2000/svg">
<path d="M40.625 0.000400066C26.902 0.000400066 15.609 10.4064 14.207 23.7624C5.8554 27.3444 0 35.6414 0 45.3134C0 57.2314 8.8984 67.0754 20.414 68.5554C20.0468 66.3093 20.6796 63.9695 22.2187 62.196L42.5977 38.637C44.7305 36.1722 48.1758 35.2893 51.2344 36.43C54.2891 37.5667 56.3164 40.4886 56.3164 43.7503V51.723H65.625C68.6602 51.723 71.4219 53.4808 72.707 56.2347C73.9882 58.9847 73.5625 62.2308 71.6093 64.555L68.0898 68.7503H70.3125C83.2575 68.7503 93.7505 58.2583 93.7505 45.3123C93.7505 37.6404 90.063 30.8323 84.3755 26.5623C84.3755 17.9334 77.3794 10.9373 68.7505 10.9373C66.6802 10.9373 64.7036 11.3396 62.8911 12.074C58.1567 4.8084 49.953 0.000400066 40.625 0.000400066Z" fill="white"/>
<path d="M49.598 40.8204C50.8207 41.2774 51.6292 42.4454 51.6292 43.7501V56.4101H65.6252C66.84 56.4101 67.9455 57.1132 68.4572 58.2148C68.9689 59.3125 68.801 60.6132 68.0197 61.5429L41.9337 92.6329C41.086 93.6407 39.7032 94.0118 38.4689 93.5626C37.2346 93.1134 36.4142 91.9376 36.4142 90.6251V70.4341H28.1251C26.9024 70.4341 25.7931 69.7192 25.2813 68.606C24.7735 67.4927 24.961 66.188 25.7618 65.2622L46.1408 41.7072C46.9962 40.7189 48.3754 40.3673 49.598 40.8204Z" fill="white"/>
</svg>
