<svg width="299" height="299" viewBox="0 0 299 299" fill="none" xmlns="http://www.w3.org/2000/svg">
<circle cx="149.5" cy="149.5" r="149.5" fill="#0A0A0A"/>
<path d="M233.092 164.827L229.007 161.966C223.223 157.903 217.065 154.295 210.7 151.165C205.444 148.594 199.079 150.771 196.498 156.016C193.927 161.272 196.104 167.637 201.349 170.218C206.74 172.841 211.933 175.92 216.816 179.351L220.9 182.212C228.333 187.416 232.739 195.906 232.739 204.956C232.77 220.299 220.299 232.768 204.988 232.768H96.0155C80.7041 232.768 68.2324 220.297 68.2324 204.985C68.2324 195.935 72.6693 187.414 80.0919 182.221L84.1764 179.36C103.717 165.676 126.649 158.461 150.501 158.461C181.228 158.461 206.232 133.457 206.232 102.73C206.232 72.0041 181.228 47 150.501 47C119.775 47 94.7706 72.0041 94.7706 102.73C94.7706 118.446 101.353 132.639 111.865 142.808C97.7458 146.976 84.2889 153.393 72.0043 161.997L67.9197 164.858C54.806 174.012 47 189.012 47 204.987C47 232.024 68.977 254 96.0139 254H205.007C232.024 254 254 232.023 254 204.987C254 189.012 246.195 174.012 233.092 164.827ZM150.501 68.2335C169.534 68.2335 185.001 83.7003 185.001 102.733C185.001 121.766 169.534 137.233 150.501 137.233C131.468 137.233 116.001 121.766 116.001 102.733C116.001 83.7003 131.468 68.2335 150.501 68.2335Z" fill="white"/>
</svg>
