<svg width="94" height="54" viewBox="0 0 94 54" fill="none" xmlns="http://www.w3.org/2000/svg">
<path d="M88.5905 15.2462C89.903 16.3712 91.8757 16.2189 92.9967 14.9103C94.1217 13.5978 93.9693 11.6251 92.6607 10.5041L81.7227 1.12905C80.5508 0.125154 78.8243 0.125154 77.6524 1.12905L72.8165 5.27355C70.4767 7.27745 67.0235 7.27745 64.6837 5.27355L59.8478 1.12905C58.6759 0.125154 56.9494 0.125154 55.7775 1.12905L50.9416 5.27355C48.6018 7.27745 45.1486 7.27745 42.8088 5.27355L37.9729 1.12905C36.801 0.125154 35.0745 0.125154 33.9026 1.12905L29.0667 5.27355C26.7269 7.27745 23.2737 7.27745 20.9339 5.27355L16.098 1.12905C14.9261 0.125154 13.1996 0.125154 12.0277 1.12905L1.08972 10.5041C-0.218877 11.6252 -0.371177 13.5979 0.753783 14.9103C1.87488 16.2189 3.84758 16.3712 5.15998 15.2462L14.0623 7.61729L16.8631 10.0196C21.5467 14.0313 28.4531 14.0313 33.1361 10.0196L35.9369 7.61729L38.7377 10.0196C43.4213 14.0313 50.3277 14.0313 55.0107 10.0196L57.8115 7.61729L60.6123 10.0196C65.2959 14.0313 72.2023 14.0313 76.8853 10.0196L79.6861 7.61729L88.5905 15.2462Z" fill="white"/>
<path d="M92.9966 33.6602C91.8755 34.9688 89.9027 35.1211 88.5903 33.9961L79.688 26.3672L76.8873 28.7695C72.2037 32.7812 65.2973 32.7812 60.6143 28.7695L57.8135 26.3672L55.0127 28.7695C50.3291 32.7812 43.4227 32.7812 38.7397 28.7695L35.9389 26.3672L33.1381 28.7695C28.4545 32.7812 21.5481 32.7812 16.8651 28.7695L14.0643 26.3672L5.16195 33.9961C3.84945 35.1211 1.87675 34.9688 0.755753 33.6602C-0.369247 32.3477 -0.216908 30.375 1.09169 29.254L12.0297 19.879C13.2016 18.8751 14.9281 18.8751 16.1 19.879L20.9359 24.0235C23.2757 26.0274 26.7289 26.0274 29.0687 24.0235L33.9046 19.879C35.0765 18.8751 36.803 18.8751 37.9749 19.879L42.8108 24.0235C45.1506 26.0274 48.6038 26.0274 50.9436 24.0235L55.7795 19.879C56.9514 18.8751 58.6779 18.8751 59.8498 19.879L64.6857 24.0235C67.0255 26.0274 70.4787 26.0274 72.8185 24.0235L77.6544 19.879C78.8263 18.8751 80.5528 18.8751 81.7247 19.879L92.6627 29.254C93.9713 30.3751 94.1236 32.3478 92.9986 33.6602H92.9966Z" fill="white"/>
<path d="M92.9966 52.4102C91.8755 53.7188 89.9027 53.8711 88.5903 52.7461L79.688 45.1172L76.8873 47.5195C72.2037 51.5312 65.2973 51.5312 60.6143 47.5195L57.8135 45.1172L55.0127 47.5195C50.3291 51.5312 43.4227 51.5312 38.7397 47.5195L35.9389 45.1172L33.1381 47.5195C28.4545 51.5312 21.5481 51.5312 16.8651 47.5195L14.0643 45.1172L5.16195 52.7461C3.84945 53.8711 1.87675 53.7188 0.755753 52.4102C-0.369247 51.0977 -0.216908 49.125 1.09169 48.004L12.0297 38.629C13.2016 37.6251 14.9281 37.6251 16.1 38.629L20.9359 42.7735C23.2757 44.7774 26.7289 44.7774 29.0687 42.7735L33.9046 38.629C35.0765 37.6251 36.803 37.6251 37.9749 38.629L42.8108 42.7735C45.1506 44.7774 48.6038 44.7774 50.9436 42.7735L55.7795 38.629C56.9514 37.6251 58.6779 37.6251 59.8498 38.629L64.6857 42.7735C67.0255 44.7774 70.4787 44.7774 72.8185 42.7735L77.6544 38.629C78.8263 37.6251 80.5528 37.6251 81.7247 38.629L92.6627 48.004C93.9713 49.1251 94.1236 51.0978 92.9986 52.4102H92.9966Z" fill="white"/>
</svg>
