<svg width="94" height="94" viewBox="0 0 94 94" fill="none" xmlns="http://www.w3.org/2000/svg">
<path d="M14.3319 22.77C16.1717 9.895 27.2419 0 40.6249 0C49.953 0 58.1559 4.8086 62.8909 12.074C64.7034 11.3396 66.68 10.9373 68.7503 10.9373C76.8597 10.9373 83.5273 17.1131 84.3013 25.0193C89.9771 28.617 93.7505 34.9607 93.7505 42.1873C93.7505 42.8357 93.7192 43.4803 93.6606 44.1131C90.8129 41.2537 86.895 39.4529 82.4576 39.4529H78.9576C76.8404 39.4529 74.9185 40.2967 73.5123 41.6677C72.0318 35.8161 66.8404 31.2497 60.2893 31.2497H56.7893C52.4768 31.2497 48.9768 34.7458 48.9768 39.0622C48.9768 40.6208 49.4339 42.0739 50.2229 43.2927H25.2889C20.9764 43.2927 17.4764 46.7927 17.4764 51.1052C17.4764 52.9294 18.1014 54.6091 19.1522 55.9411H18.7499C15.5741 55.9411 12.8437 57.8317 11.621 60.5505C4.7499 57.2927 0 50.2965 0 42.1875C0 33.0508 6.03108 25.325 14.3319 22.77Z" fill="white"/>
<path d="M56.7891 35.937C55.0664 35.937 53.6641 37.3354 53.6641 39.062C53.6641 40.7886 55.0664 42.187 56.7891 42.187H60.2891C61.6953 42.187 63 43.3901 63 45.0854C63 46.7768 61.6953 47.9799 60.2891 47.9799H25.2891C23.5625 47.9799 22.1641 49.3783 22.1641 51.1049C22.1641 52.8315 23.5625 54.2299 25.2891 54.2299H60.2891C65.3321 54.2299 69.25 50.0424 69.25 45.0854C69.25 40.1284 65.332 35.937 60.2891 35.937H56.7891Z" fill="white"/>
<path d="M82.457 44.141H78.957C77.2304 44.141 75.832 45.5433 75.832 47.266C75.832 48.9926 77.2304 50.391 78.957 50.391H82.457C85.1484 50.391 87.5 52.6722 87.5 55.6996C87.5 58.5355 85.3359 60.6293 82.457 60.6293H18.75C17.0234 60.6293 15.625 62.0277 15.625 63.7543C15.625 65.477 17.0234 66.8793 18.75 66.8793H82.457C88.6015 66.8793 93.75 62.1723 93.75 55.6993C93.75 49.4102 88.7891 44.141 82.457 44.141Z" fill="white"/>
<path d="M24.9019 73.047C23.1753 73.047 21.7769 74.4454 21.7769 76.172C21.7769 77.8986 23.1753 79.297 24.9019 79.297H61.0699C63.1168 79.297 64.9449 81.0392 64.9449 83.3986C64.9449 85.758 63.1168 87.5002 61.0699 87.5002H56.4019C54.6753 87.5002 53.2769 88.8986 53.2769 90.6252C53.2769 92.3518 54.6753 93.7502 56.4019 93.7502H61.0699C66.7535 93.7502 71.1949 89.0197 71.1949 83.3982C71.1949 77.7771 66.7535 73.0462 61.0699 73.0462L24.9019 73.047Z" fill="white"/>
</svg>
