<svg width="96" height="93" viewBox="0 0 96 93" fill="none" xmlns="http://www.w3.org/2000/svg">
<path d="M61.5279 39.6197C62.0292 37.8101 60.9687 35.9367 59.1591 35.4353C57.3495 34.934 55.4761 35.9945 54.9747 37.8041C54.4733 39.6137 55.5339 41.4871 57.3435 41.9885C59.1531 42.4899 61.0265 41.4293 61.5279 39.6197Z" fill="black"/>
<path d="M77.3038 41.9128L71.8038 40.1128C70.4038 34.1128 66.6038 29.3128 61.2038 27.0128C56.9038 25.1128 52.1038 24.9128 47.6038 26.2128C46.2038 26.6128 44.8038 27.2128 43.6038 27.9128C40.7038 29.4128 38.0038 32.0128 35.4038 35.9128C33.9038 38.2128 32.9038 40.3128 32.0038 42.2128C30.9038 44.6128 30.0038 46.5128 28.3038 48.3128C28.1038 48.3128 28.0038 48.3128 27.8038 48.3128C25.0038 48.4128 22.3038 47.7128 19.8038 46.4128C18.3038 45.6128 16.5038 45.7128 15.1038 46.7128C13.8038 47.7128 13.1038 49.3128 13.4038 51.0128C13.7038 52.6128 14.2038 54.2128 14.9038 55.7128C11.7038 56.8128 8.40378 57.5128 5.20378 57.8128C3.00378 58.0128 1.20378 59.4128 0.403783 61.4128C-0.396217 63.4128 0.00378323 65.6128 1.50378 67.2128C5.40378 71.5128 10.1038 74.8128 15.5038 77.2128C21.0038 79.6128 26.5038 80.8128 31.9038 81.1128V90.4128C31.9038 91.6128 32.9038 92.6128 34.1038 92.6128C35.3038 92.6128 36.3038 91.6128 36.3038 90.4128V81.0128C38.3038 80.9128 40.4038 80.6128 42.3038 80.2128V90.4128C42.3038 91.6128 43.3038 92.6128 44.5038 92.6128C45.7038 92.6128 46.7038 91.6128 46.7038 90.4128V78.7128C56.5038 75.4128 64.8038 68.3128 69.4038 58.1128C70.6038 55.5128 71.6038 51.1128 72.0038 47.5128L77.2038 45.4128C79.1038 44.7128 79.0038 42.4128 77.3038 41.9128ZM27.9038 52.7128C31.9038 52.6128 36.4038 50.7128 37.3038 50.3128C38.2038 49.9128 42.9038 48.1128 45.8038 51.5128C46.7038 52.6128 47.0038 53.7128 46.8038 55.1128C46.4038 57.4128 44.3038 59.8128 41.4038 61.5128C34.2038 65.6128 24.1038 62.7128 19.8038 55.4128C18.9038 53.8128 18.3038 52.2128 17.9038 50.4128C21.0038 52.0128 24.4038 52.8128 27.9038 52.7128ZM65.6038 56.3128C57.4038 74.2128 36.7038 81.3128 17.3038 72.9128C12.5038 70.8128 8.30378 67.8128 4.80378 64.0128C4.40378 63.6128 4.60378 63.1128 4.60378 62.9128C4.70378 62.7128 4.90378 62.2128 5.60378 62.2128C9.40378 61.9128 13.4038 60.9128 17.2038 59.6128C21.2038 64.9128 27.5038 67.9128 33.9038 67.9128C37.2038 67.9128 40.5038 67.1128 43.5038 65.4128C47.6038 63.1128 50.4038 59.5128 51.1038 55.9128C51.6038 53.3128 50.9038 50.8128 49.2038 48.7128C45.4038 44.2128 39.5038 44.5128 35.5038 46.3128C35.3038 46.4128 35.1038 46.5128 34.8038 46.6128C35.2038 45.8128 35.6038 44.9128 36.0038 44.1128C36.9038 42.3128 37.7038 40.4128 39.1038 38.4128C41.2038 35.2128 43.4038 33.1128 45.7038 31.8128C46.7038 31.2128 47.8038 30.7128 48.9038 30.4128C50.3038 30.0128 51.8038 29.7128 53.3038 29.7128C55.4038 29.7128 57.4038 30.1128 59.4038 31.0128C66.8038 34.2128 67.8038 42.0128 67.9038 44.3128C68.1038 47.3128 66.9038 53.4128 65.6038 56.3128Z" fill="black"/>
<path d="M93.2038 12.6128L80.3038 14.5128C79.5038 14.6128 78.9038 15.3128 78.9038 16.2128V28.3128C78.2038 28.1128 77.3038 28.0128 76.5038 28.2128C74.2038 28.6128 72.7038 30.6128 73.1038 32.5128C73.5038 34.4128 75.6038 35.6128 77.9038 35.2128C79.9038 34.8128 81.4038 33.2128 81.4038 31.5128V19.4128L92.8038 17.7128V26.2128C92.1038 26.0128 91.2038 25.9128 90.4038 26.1128C88.1038 26.5128 86.6038 28.5128 87.0038 30.4128C87.4038 32.3128 89.5038 33.5128 91.8038 33.1128C93.8038 32.7128 95.3038 31.1128 95.3038 29.4128V14.3128C95.1038 13.3128 94.2038 12.5128 93.2038 12.6128Z" fill="black"/>
<path d="M68.7037 20.5128C70.7037 20.1128 72.2037 18.5128 72.2037 16.8128V4.21281C75.6037 4.21281 75.2037 7.71281 74.5037 9.81281C74.4037 10.1128 74.5037 10.4128 74.8037 10.5128L75.3037 10.7128C75.6037 10.8128 75.9037 10.8128 76.0037 10.5128C79.4037 6.31281 76.8037 0.712806 70.9037 0.0128056C70.3037 -0.0871944 69.8037 0.412805 69.8037 1.01281V13.5128C69.1037 13.3128 68.2037 13.2128 67.4037 13.4128C65.1037 13.8128 63.6037 15.8128 64.0037 17.7128C64.3037 19.7128 66.4037 20.9128 68.7037 20.5128Z" fill="black"/>
</svg>
