<svg width="69" height="88" viewBox="0 0 69 88" fill="none" xmlns="http://www.w3.org/2000/svg">
<path d="M64.8645 71.6511C64.7614 71.5863 64.6521 71.5319 64.5383 71.4887L60.0023 69.7558C63.0087 68.6965 64.8974 68.0303 64.9874 67.9986C65.3216 67.8804 65.6157 67.6706 65.8363 67.3931C66.824 66.0335 67.4834 64.4637 67.7627 62.8066C68.042 61.1494 67.9337 59.4502 67.4463 57.8419C66.0112 53.2301 61.2112 52.1834 58.8463 52.2625C58.6586 52.2695 58.4729 52.3044 58.2955 52.366L53.7877 53.9383C60.5221 39.9153 51.139 26.8466 51.0325 26.7019C50.8322 26.4297 50.5625 26.2163 50.2514 26.0841C49.9404 25.9519 49.5995 25.9058 49.2645 25.9505C48.9295 25.9953 48.6127 26.1294 48.3473 26.3386C48.0819 26.5479 47.8777 26.8246 47.756 27.1399C47.4052 27.8296 46.8723 28.4101 46.2151 28.8184C44.9002 12.9033 34.4619 1.14532 33.9907 0.623121C33.7588 0.365713 33.4604 0.177218 33.1284 0.0783522C32.7964 -0.0205133 32.4435 -0.0259216 32.1086 0.0627225C31.7736 0.151367 31.4696 0.330631 31.23 0.580812C30.9903 0.830993 30.8243 1.14241 30.7501 1.48082C27.9901 14.0568 23.8253 19.9608 20.1501 25.1708C17.3332 29.1642 14.6719 32.9362 13.2395 38.8543C11.8249 43.9607 12.1878 49.3962 14.2686 54.2692L9.38279 52.4757C9.24432 52.4249 9.10037 52.3905 8.95389 52.3731C7.0159 52.1778 5.07454 52.7102 3.5072 53.8666C1.93985 55.0231 0.858515 56.721 0.473388 58.6303C-1.15581 65.0311 1.91449 67.8544 2.27019 68.1553C2.43766 68.297 2.62855 68.4083 2.83429 68.4843L7.32639 70.1443L4.94539 70.9743C4.8351 71.0126 4.72864 71.0611 4.62739 71.1192C2.88743 72.1828 1.58019 73.828 0.93737 75.7634C0.294546 77.6987 0.357646 79.7991 1.11549 81.6923C2.58099 85.8693 5.51749 86.9809 8.32979 86.9809C10.2959 86.9033 12.2372 86.5134 14.0808 85.8256C16.619 84.9796 24.5072 82.2277 33.3393 79.1312C33.5369 79.3321 33.7773 79.4856 34.0427 79.5803C34.8152 79.8514 53.0027 86.2303 56.5389 87.4093C57.4259 87.7109 58.3559 87.8672 59.2928 87.8722C62.6346 87.8717 65.5739 85.7607 67.1815 82.0089C69.5645 76.4501 66.7081 72.8028 64.8645 71.6511ZM16.9027 39.7431C18.1667 34.5216 20.5133 31.1949 23.2303 27.3431C28.0371 21.0291 31.5289 13.8153 33.4993 6.12832C36.8103 10.8012 42.5167 20.4974 42.5816 31.8868C42.5833 32.1894 42.6578 32.4872 42.7988 32.7549C42.9399 33.0226 43.1433 33.2524 43.3919 33.4249C43.6406 33.5974 43.9271 33.7075 44.2272 33.7458C44.5274 33.7842 44.8324 33.7497 45.1164 33.6453C46.6599 33.0589 48.0908 32.211 49.3464 31.1386C51.7006 35.506 55.5964 45.6666 48.268 55.8638L42.4542 57.8917C42.8435 56.4722 42.9896 54.997 42.8863 53.5286C42.4473 46.4464 35.3113 38.1196 35.0076 37.7686C34.8263 37.5568 34.5999 37.3884 34.3449 37.2756C34.0899 37.1629 33.8129 37.1087 33.5343 37.1171C33.2559 37.1243 32.9825 37.193 32.7338 37.3183C32.4851 37.4437 32.2673 37.6226 32.096 37.8422C31.8102 38.2089 25.0943 46.9001 24.6715 54.2395C24.5795 55.6161 24.7725 56.9969 25.2384 58.2955L19.9709 56.3619C16.3391 51.9099 15.3016 46.3243 16.9027 39.7431ZM33.1967 61.1207C33.0241 60.9725 32.8261 60.8568 32.6122 60.7793C31.333 60.3082 30.2378 59.4408 29.4862 58.3036C28.7346 57.1663 28.3659 55.8188 28.4338 54.4573C28.6818 50.1524 31.7909 44.9236 33.6638 42.1352C35.8438 45.0763 38.888 49.9559 39.1238 53.7597C39.2612 54.8342 39.16 55.9257 38.8276 56.9567C38.4951 57.9876 37.9394 58.9326 37.2002 59.7243L33.1967 61.1207ZM4.57449 65.1086C4.17239 64.5597 3.28069 62.8835 4.12639 59.5596C4.96559 56.2637 7.49489 56.0696 8.33139 56.1045L18.1105 59.6945C18.1305 59.7029 18.151 59.7091 18.1712 59.7168L27.4538 63.1242L12.9206 68.193L4.57449 65.1086ZM12.8894 82.2495C7.74939 83.963 5.75379 83.5245 4.67259 80.4445C4.21553 79.4042 4.13682 78.2367 4.4501 77.1444C4.76338 76.0521 5.4489 75.1038 6.38789 74.4638L38.8135 63.1538L38.8356 63.1461L50.0592 59.2314L50.0749 59.2259L59.2297 56.0327C60.1197 56.0659 63.0432 56.3751 63.848 58.9619C64.136 59.9063 64.2225 60.9006 64.1019 61.8804C63.9813 62.8603 63.6563 63.804 63.148 64.6503C57.8931 66.5037 19.1208 80.1725 12.8894 82.2495ZM63.7171 80.5241C62.472 83.4311 60.2326 84.6679 57.7314 83.8332C55.1551 82.9748 44.3731 79.205 38.7457 77.2343C44.3233 75.2759 49.9214 73.3063 54.5077 71.6914L62.9717 74.9248C63.5737 75.39 65.207 77.0474 63.7171 80.5241Z" fill="black"/>
</svg>
