<svg width="81" height="72" viewBox="0 0 81 72" fill="none" xmlns="http://www.w3.org/2000/svg">
<path d="M66.4945 19.8247C65.4007 19.8247 64.3148 19.9537 63.2523 20.2154C62.7406 13.1646 58.8382 6.80137 52.7913 3.14537C46.7405 -0.510831 39.2953 -1.01083 32.8143 1.80947C26.3338 4.62977 21.6193 10.415 20.1733 17.3365C15.9389 15.856 11.2671 16.3248 7.41128 18.6177C3.55968 20.9107 0.915185 24.7935 0.196485 29.2197C-0.522215 33.6459 0.751175 38.165 3.68088 41.5597C6.60668 44.9581 10.8879 46.8839 15.3719 46.8253H59.7819V46.9854V50.626C59.7819 52.0049 60.8991 53.126 62.2819 53.126C63.6608 53.126 64.7819 52.0049 64.7819 50.626V47.0244V46.8643H66.5202C70.1764 46.9658 73.7155 45.5831 76.3327 43.0323C78.9538 40.4854 80.4304 36.9854 80.4304 33.3292C80.4304 29.6769 78.9538 26.1769 76.3327 23.6261C73.7155 21.0792 70.1765 19.6964 66.5202 19.7941L66.4945 19.8247ZM66.4945 41.8947H15.3735C12.1704 41.8908 9.15469 40.3752 7.23679 37.8088C5.31889 35.2424 4.72509 31.9221 5.63129 28.8479C6.53754 25.7738 8.83828 23.3088 11.8422 22.1917C14.8461 21.0745 18.2016 21.4378 20.893 23.1761C21.6469 23.6605 22.6 23.7074 23.3969 23.2933C24.1899 22.8792 24.7016 22.0706 24.7328 21.1761C24.9359 15.2425 28.2562 9.86011 33.4672 7.01611C38.6742 4.17231 44.9982 4.28951 50.1002 7.3247C55.1979 10.3599 58.319 15.8599 58.3033 21.7937C58.3072 22.4265 58.272 23.0593 58.1939 23.6843C58.0845 24.6413 58.5259 25.5749 59.3345 26.0945C60.147 26.6101 61.1822 26.6101 61.9947 26.0945C64.2681 24.6375 67.0924 24.3445 69.6197 25.2976C72.1431 26.2507 74.0689 28.3406 74.8111 30.9382C75.5533 33.532 75.0259 36.3249 73.3853 38.4694C71.7486 40.6139 69.1939 41.86 66.4947 41.8249L66.4945 41.8947Z" fill="black"/>
<path d="M21.9825 61.6257C22.6465 61.6257 23.2833 61.3601 23.752 60.8914C24.2207 60.4226 24.4824 59.7898 24.4824 59.1258V55.4852C24.4824 54.1024 23.3652 52.9852 21.9824 52.9852C20.6035 52.9852 19.4824 54.1024 19.4824 55.4852V59.1258C19.4824 59.7898 19.748 60.4227 20.2168 60.8914C20.6856 61.3601 21.3185 61.6257 21.9825 61.6257Z" fill="black"/>
<path d="M36.2644 65.5547V61.9141C36.2644 60.5352 35.1433 59.4141 33.7644 59.4141C32.3816 59.4141 31.2644 60.5352 31.2644 61.9141V65.5547C31.2644 66.9336 32.3816 68.0547 33.7644 68.0547C35.1433 68.0547 36.2644 66.9336 36.2644 65.5547Z" fill="black"/>
<path d="M48.5845 58.3758V54.7352C48.5845 53.3524 47.4634 52.2352 46.0845 52.2352C44.7017 52.2352 43.5845 53.3524 43.5845 54.7352V58.3758C43.5845 59.7547 44.7017 60.8758 46.0845 60.8758C47.4634 60.8758 48.5845 59.7547 48.5845 58.3758Z" fill="black"/>
<path d="M57.9126 69.1958V65.5552C57.9126 64.1724 56.7954 63.0552 55.4126 63.0552C54.0337 63.0552 52.9126 64.1724 52.9126 65.5552V69.1958C52.9126 70.5747 54.0337 71.6958 55.4126 71.6958C56.7954 71.6958 57.9126 70.5747 57.9126 69.1958Z" fill="black"/>
</svg>
