<svg width="89" height="94" viewBox="0 0 89 94" fill="none" xmlns="http://www.w3.org/2000/svg">
<path d="M87.6294 22.3596C84.476 19.6039 76.7576 12.1609 72.8821 2.33958C72.8066 2.14863 72.7152 1.9644 72.6087 1.78885C71.7622 0.385508 69.596 1.18917 69.8653 2.80872C71.2176 10.9024 74.8647 25.203 84.3678 34.3288C84.6849 34.637 85.0836 34.8477 85.5168 34.9363C85.95 35.0248 86.3994 34.9873 86.8119 34.8282C87.2245 34.6692 87.5828 34.3953 87.8444 34.0389C88.106 33.6825 88.2601 33.2586 88.2882 32.8174C88.4657 29.9087 88.6493 27.3264 88.8288 25.3683C88.8806 24.8077 88.7989 24.2428 88.5904 23.7199C88.382 23.197 88.0526 22.7308 87.6294 22.3596Z" fill="white"/>
<path d="M13.3193 37.8251C13.3047 37.6629 13.2325 37.5114 13.1158 37.3979C12.9991 37.2844 12.8456 37.2165 12.6831 37.2064C12.5206 37.1963 12.3599 37.2447 12.2301 37.3428C12.1002 37.441 12.0098 37.5824 11.9751 37.7414C10.6411 44.0646 7.69168 52.6315 1.14411 58.7222C0.798251 59.0393 0.519102 59.4221 0.322994 59.8484C0.126886 60.2747 0.0177568 60.7358 0.00199233 61.2047C-0.0137721 61.6736 0.0641446 62.141 0.231183 62.5795C0.398222 63.018 0.651028 63.4187 0.97481 63.7583C1.74583 64.5599 2.67595 65.5166 3.75498 66.6017C4.0545 66.9065 4.42109 67.1371 4.82552 67.2752C5.22996 67.4132 5.66105 67.4549 6.08443 67.3968C6.50781 67.3388 6.91178 67.1826 7.26413 66.9408C7.61648 66.699 7.90747 66.3782 8.1139 66.0041C13.4499 56.2317 14.0801 45.8759 13.3193 37.8251Z" fill="white"/>
<path d="M85.2267 40.4481C77.9958 35.1712 72.3539 26.7512 68.7395 15.7529C67.2053 11.0384 66.094 6.19668 65.4188 1.28504C65.3703 0.928541 65.1941 0.601749 64.9229 0.365394C64.6516 0.12904 64.3038 -0.000799884 63.944 3.70788e-06H39.3468C38.802 -9.18202e-05 38.2639 0.119526 37.7704 0.350395C37.2769 0.581264 36.8402 0.917744 36.4912 1.33603C33.5947 4.80359 25.5316 14.4658 18.0254 23.3652C17.2584 24.275 16.7091 25.3477 16.4193 26.5018C16.1295 27.6558 16.1067 28.8608 16.3528 30.025C17.0406 33.297 17.481 36.6162 17.6705 39.9544C18.2946 51.2118 15.8225 61.5206 10.4824 70.1548C10.1531 70.6914 10.0191 71.3253 10.103 71.9493C10.187 72.5733 10.4839 73.1492 10.9434 73.5796C17.1014 79.3683 25.1441 86.4442 34.2128 93.2304C34.8596 93.7126 35.6501 93.9626 36.4565 93.9403C40.7604 93.8199 55.3363 93.2977 66.8017 91.5803C67.4492 91.4823 68.0575 91.2091 68.5608 90.7902C69.0642 90.3714 69.4434 89.8228 69.6574 89.204C71.2422 84.637 75.9214 73.294 85.5041 65.237C85.9169 64.894 86.2533 64.4683 86.4915 63.9874C86.7297 63.5064 86.8644 62.9809 86.887 62.4446C87.0053 59.3667 87.2726 52.5825 87.6112 45.4087C87.6535 44.4494 87.458 43.4944 87.042 42.6289C86.6259 41.7634 86.0023 41.0142 85.2267 40.4481ZM49.1131 15.7815C49.1388 15.6485 49.1784 15.5186 49.2314 15.3939C49.2816 15.2691 49.3452 15.1501 49.4211 15.039C49.4954 14.9242 49.5815 14.8176 49.6781 14.7208C49.7749 14.6259 49.88 14.5399 49.9922 14.4638C50.1052 14.3886 50.2255 14.3251 50.3512 14.2741C50.4762 14.2221 50.606 14.1824 50.7388 14.1558C51.0081 14.1022 51.2853 14.1022 51.5547 14.1558C51.6883 14.1816 51.8189 14.2212 51.9443 14.2741C52.0693 14.3251 52.1889 14.3887 52.3012 14.4638C52.4138 14.5394 52.5189 14.6254 52.6153 14.7208C52.7126 14.8175 52.7994 14.9242 52.8744 15.039C52.9487 15.151 53.0122 15.2699 53.0641 15.3939C53.1161 15.5189 53.1557 15.6487 53.1824 15.7815C53.2499 16.1165 53.2334 16.4629 53.1345 16.79C53.0356 17.1171 52.8572 17.4146 52.6153 17.656C52.52 17.7525 52.4147 17.8387 52.3012 17.913C52.1881 17.9873 52.0686 18.0514 51.9443 18.1047C51.8185 18.156 51.688 18.195 51.5547 18.221C51.2855 18.276 51.008 18.276 50.7388 18.221C50.6063 18.1941 50.4766 18.1552 50.3512 18.1047C50.2262 18.0514 50.1061 17.9873 49.9922 17.913C49.8791 17.8382 49.7739 17.7521 49.6781 17.656C49.2887 17.2661 49.0689 16.7384 49.0662 16.1874C49.0676 16.0508 49.0834 15.9148 49.1131 15.7815ZM29.4785 67.0014C29.45 67.1337 29.4104 67.2633 29.3602 67.3889C29.3068 67.5129 29.2434 67.6323 29.1705 67.7459C29.0948 67.8601 29.0073 67.9661 28.9095 68.0621C28.8128 68.1577 28.7076 68.2444 28.5953 68.3211C28.4819 68.3955 28.3617 68.459 28.2363 68.5108C28.1115 68.5634 27.9817 68.603 27.8488 68.6291C27.5144 68.6967 27.1686 68.6802 26.8421 68.5813C26.5157 68.4823 26.2189 68.3039 25.9784 68.0621C25.8806 67.9671 25.7944 67.861 25.7213 67.7459C25.6449 67.6337 25.58 67.5142 25.5276 67.3889C25.4764 67.2636 25.4369 67.1339 25.4093 67.0014C25.3571 66.7319 25.3571 66.455 25.4093 66.1855C25.4363 66.0528 25.4759 65.9231 25.5276 65.798C25.58 65.6721 25.6449 65.5518 25.7213 65.439C25.7949 65.3249 25.8811 65.2195 25.9784 65.1248C26.2201 64.8848 26.517 64.7076 26.8431 64.6088C27.1691 64.5099 27.5144 64.4924 27.8488 64.5578C27.9817 64.5846 28.1116 64.6249 28.2363 64.6781C28.3625 64.7283 28.4828 64.7919 28.5953 64.8678C28.7123 64.9433 28.821 65.0308 28.9197 65.1289C29.1604 65.3707 29.3381 65.6679 29.4373 65.9943C29.5365 66.3207 29.5542 66.6665 29.4887 67.0014H29.4785ZM42.6471 77.0084C42.4061 77.2502 42.109 77.4286 41.7822 77.5276C41.4555 77.6265 41.1093 77.6429 40.7746 77.5754C40.642 77.5491 40.5123 77.5102 40.3871 77.4592C40.2621 77.4058 40.1419 77.3417 40.0281 77.2674C39.9149 77.1919 39.8097 77.1051 39.714 77.0084C39.6167 76.9132 39.5298 76.8079 39.4549 76.6943C39.3799 76.5816 39.3157 76.4621 39.2632 76.3373C39.2112 76.2116 39.1716 76.0811 39.1449 75.9477C39.1185 75.8133 39.1055 75.6767 39.1061 75.5398C39.1059 75.4028 39.1189 75.2662 39.1449 75.1318C39.1725 74.9993 39.2121 74.8696 39.2632 74.7443C39.3157 74.6201 39.3799 74.5013 39.4549 74.3893C39.5298 74.2744 39.6166 74.1678 39.714 74.0711C39.8097 73.9751 39.915 73.889 40.0281 73.8141C40.1406 73.7382 40.261 73.6746 40.3871 73.6244C40.5119 73.5718 40.6417 73.5322 40.7746 73.5061C41.1092 73.4412 41.4545 73.4588 41.7807 73.5572C42.1069 73.6556 42.4043 73.832 42.6471 74.0711C42.7433 74.1688 42.83 74.2754 42.9062 74.3893C42.979 74.5023 43.0424 74.621 43.0959 74.7443C43.146 74.8699 43.1856 74.9995 43.2142 75.1318C43.2401 75.2662 43.2531 75.4028 43.2529 75.5398C43.253 76.0901 43.0352 76.6181 42.6471 77.0084ZM64.8619 63.4502C62.1022 65.5552 57.8228 68.4415 53.0314 70.3221C52.3168 70.6021 51.543 70.6973 50.7818 70.5989C50.0206 70.5005 49.2965 70.2117 48.6766 69.7591C44.7501 66.9035 35.7507 60.4069 30.5861 57.2127C29.9611 56.8256 29.4833 56.241 29.2283 55.5515C28.9733 54.862 28.9559 54.1071 29.1787 53.4065C30.684 48.658 34.3474 38.0391 39.7588 28.3769C40.0868 27.7947 40.607 27.3447 41.2303 27.104C41.8536 26.8632 42.5412 26.8467 43.1754 27.0572C46.8163 28.2586 54.3675 31.0102 61.941 35.3528C62.6368 35.7558 63.2062 36.3451 63.5849 37.0544C63.9637 37.7637 64.1368 38.5646 64.0848 39.367L63.4361 49.4678C63.2485 52.3805 61.1924 54.8874 58.3368 55.4932C58.0941 55.5442 57.8432 55.5829 57.5841 55.6115C56.2516 55.7377 54.9124 55.4537 53.7458 54.7975C52.5792 54.1413 51.641 53.1443 51.057 51.94C50.2411 50.2776 49.8964 48.0848 51.5995 45.7799C51.7514 45.5797 51.9314 45.4025 52.1339 45.2537C52.6414 44.878 53.0767 44.4136 53.419 43.883C53.7641 43.3415 53.8803 42.6853 53.7423 42.0582C53.6043 41.4311 53.2232 40.8843 52.6826 40.5378C51.5972 39.8485 50.4492 39.2633 49.2538 38.7897C48.7373 38.5841 48.1694 38.5447 47.6294 38.677C47.0893 38.8094 46.6041 39.1069 46.2411 39.5281C44.3465 41.7106 42.6776 44.0792 41.2601 46.5979C40.6172 47.7764 40.3196 49.1123 40.4015 50.4523C40.4834 51.7923 40.9415 53.082 41.7231 54.1735C43.8459 57.1123 46.3721 59.7374 49.2273 61.9714C50.2609 62.7813 51.5647 63.1658 52.8723 63.0463C55.3792 62.8261 59.8686 62.3692 64.0603 61.6308C64.2871 61.5872 64.5219 61.6219 64.7264 61.7291C64.9308 61.8364 65.0929 62.0098 65.186 62.2211C65.2791 62.4324 65.2977 62.6691 65.2388 62.8923C65.18 63.1156 65.0471 63.3123 64.8619 63.4502Z" fill="white"/>
</svg>
