<svg width="86" height="79" viewBox="0 0 86 79" fill="none" xmlns="http://www.w3.org/2000/svg">
<path d="M85.7769 37.4316C85.1753 41.6386 82.9566 45.373 79.523 47.9476C76.7105 50.0609 73.3746 51.1703 69.9449 51.1703C69.1949 51.1703 68.4371 51.1156 67.6793 51.0101C66.3981 50.8265 65.5113 49.639 65.691 48.3578C65.8746 47.0766 67.0504 46.1937 68.3433 46.3695C71.3081 46.7953 74.2847 46.0218 76.7105 44.2015C79.1441 42.3773 80.7144 39.7406 81.1402 36.7718C81.566 33.803 80.7925 30.8304 78.9683 28.4007C77.148 25.971 74.5113 24.3968 71.5386 23.9749C70.5425 23.8304 69.7456 23.0686 69.5659 22.0765C67.7182 11.9985 58.9409 4.6855 48.6949 4.6855C38.4489 4.6855 29.6719 11.998 27.8239 22.0765C27.6208 23.1898 26.652 23.9984 25.5192 23.9984H15.863C9.7028 23.9984 4.687 29.014 4.687 35.1744C4.687 41.3348 9.7026 46.3504 15.863 46.3504H21.656C22.949 46.3504 23.9998 47.4012 23.9998 48.6942C23.9998 49.9872 22.949 51.038 21.656 51.038H15.863C7.1169 51.038 0 43.9247 0 35.175C0 26.4289 7.1172 19.312 15.863 19.312H23.6403C26.6051 8.011 36.8433 0 48.6913 0C60.6603 0 70.9883 8.1758 73.8323 19.656C81.68 21.6208 86.9413 29.2615 85.7733 37.437L85.7769 37.4316ZM58.4489 47.5096C58.8708 48.2322 58.8747 49.1229 58.4567 49.8494L43.0077 76.8884C42.5819 77.6305 41.8007 78.0681 40.9725 78.0681C40.7733 78.0681 40.5702 78.0407 40.371 77.9899C39.3437 77.7165 38.6287 76.7868 38.6287 75.7243V58.7553H29.3866C28.5506 58.7553 27.7772 58.31 27.3593 57.5873C26.9374 56.8647 26.9335 55.974 27.3514 55.2475L42.8004 28.2125C43.3239 27.2907 44.4059 26.8375 45.4371 27.1109C46.4644 27.3844 47.1793 28.314 47.1793 29.3765V46.3455H56.4254C57.2614 46.3455 58.0348 46.7908 58.4527 47.5135L58.4489 47.5096ZM52.3864 51.0291H44.8317C43.5387 51.0291 42.4879 49.9783 42.4879 48.6853V38.2013L33.4215 54.0683H40.9723C42.2653 54.0683 43.3161 55.1191 43.3161 56.4121V66.9001L52.3864 51.0331V51.0291Z" fill="black"/>
</svg>
