<svg width="164" height="137" viewBox="0 0 164 137" fill="none" xmlns="http://www.w3.org/2000/svg">
<path d="M9.73077 32.9231C21.6104 32.9231 27.7692 27.6146 32.9231 23.3369C36.9173 19.8065 39.6488 17.4615 45.8077 17.4615C51.9665 17.4615 54.5435 19.6777 58.6923 23.3369C63.8461 27.6146 70.0308 32.9231 81.8846 32.9231C93.7385 32.9231 99.9231 27.6146 104.948 23.3369C109.252 19.6777 111.803 17.4615 117.962 17.4615C124.12 17.4615 126.697 19.6777 130.846 23.3112C136 27.6146 142.159 32.9231 154.038 32.9231C156.089 32.9231 158.055 32.1086 159.505 30.6588C160.955 29.209 161.769 27.2426 161.769 25.1923C161.769 23.142 160.955 21.1756 159.505 19.7258C158.055 18.276 156.089 17.4615 154.038 17.4615C147.88 17.4615 145.303 15.2454 141.154 11.5862C136 7.30846 129.841 2 117.962 2C106.082 2 99.9231 7.30846 94.8981 11.5862C90.6204 15.2454 88.0435 17.4615 81.8846 17.4615C75.7258 17.4615 73.1488 15.2454 69 11.5862C63.8461 7.30846 57.6873 2 45.8077 2C33.9281 2 27.7692 7.30846 22.6154 11.5862C18.6212 15.1165 15.8896 17.4615 9.73077 17.4615C7.68044 17.4615 5.71409 18.276 4.26429 19.7258C2.81449 21.1756 2 23.142 2 25.1923C2 27.2426 2.81449 29.209 4.26429 30.6588C5.71409 32.1086 7.68044 32.9231 9.73077 32.9231Z" fill="white" stroke="white" stroke-width="4"/>
<path d="M9.73077 84.4617C21.6104 84.4617 27.7692 79.1532 32.9231 74.8755C36.9173 71.3451 39.6488 69.0001 45.8077 69.0001C51.9665 69.0001 54.5435 71.2163 58.6923 74.8755C63.8461 79.1532 70.0308 84.4617 81.8846 84.4617C93.7385 84.4617 99.9231 79.1532 104.948 74.8755C109.252 71.2163 111.803 69.0001 117.962 69.0001C124.12 69.0001 126.697 71.2163 130.846 74.8497C136 79.1532 142.159 84.4617 154.038 84.4617C156.089 84.4617 158.055 83.6472 159.505 82.1974C160.955 80.7476 161.769 78.7812 161.769 76.7309C161.769 74.6806 160.955 72.7142 159.505 71.2644C158.055 69.8146 156.089 69.0001 154.038 69.0001C147.88 69.0001 145.303 66.784 141.154 63.1247C136 58.847 129.841 53.5386 117.962 53.5386C106.082 53.5386 99.9231 58.847 94.8981 63.1247C90.6204 66.784 88.0435 69.0001 81.8846 69.0001C75.7258 69.0001 73.1488 66.784 69 63.1247C63.8461 58.847 57.6873 53.5386 45.8077 53.5386C33.9281 53.5386 27.7692 58.847 22.6154 63.1247C18.6212 66.6551 15.8896 69.0001 9.73077 69.0001C7.68044 69.0001 5.71409 69.8146 4.26429 71.2644C2.81449 72.7142 2 74.6806 2 76.7309C2 78.7812 2.81449 80.7476 4.26429 82.1974C5.71409 83.6472 7.68044 84.4617 9.73077 84.4617Z" fill="white" stroke="white" stroke-width="3"/>
<path d="M9.73077 136C21.6104 136 27.7692 130.692 32.9231 126.414C36.9173 122.884 39.6488 120.539 45.8077 120.539C51.9665 120.539 54.5435 122.755 58.6923 126.414C63.8461 130.692 70.0308 136 81.8846 136C93.7385 136 99.9231 130.692 104.948 126.414C109.252 122.755 111.803 120.539 117.962 120.539C124.12 120.539 126.697 122.755 130.846 126.388C136 130.692 142.159 136 154.038 136C156.089 136 158.055 135.186 159.505 133.736C160.955 132.286 161.769 130.32 161.769 128.269C161.769 126.219 160.955 124.253 159.505 122.803C158.055 121.353 156.089 120.539 154.038 120.539C147.88 120.539 145.303 118.323 141.154 114.663C136 110.386 129.841 105.077 117.962 105.077C106.082 105.077 99.9231 110.386 94.8981 114.663C90.6204 118.323 88.0435 120.539 81.8846 120.539C75.7258 120.539 73.1488 118.323 69 114.663C63.8461 110.386 57.6873 105.077 45.8077 105.077C33.9281 105.077 27.7692 110.386 22.6154 114.663C18.6212 118.194 15.8896 120.539 9.73077 120.539C7.68044 120.539 5.71409 121.353 4.26429 122.803C2.81449 124.253 2 126.219 2 128.269C2 130.32 2.81449 132.286 4.26429 133.736C5.71409 135.186 7.68044 136 9.73077 136Z" fill="white" stroke="white" stroke-width="2"/>
</svg>
