<svg width="90" height="56" viewBox="0 0 90 56" fill="none" xmlns="http://www.w3.org/2000/svg">
<path d="M65.1409 17.379C58.6292 17.379 55.1917 14.629 52.4419 12.4181C50.1021 10.5392 48.5513 9.29699 44.981 9.29699C41.4107 9.29699 39.8716 10.5353 37.5318 12.4181C34.7701 14.629 31.3404 17.379 24.8328 17.379C18.3211 17.379 14.8914 14.629 12.1418 12.4181C9.80203 10.5392 8.26293 9.29699 4.70043 9.29699C2.38013 9.29699 0.509033 7.41809 0.509033 5.10559C0.509033 2.79699 2.38793 0.914185 4.70043 0.914185C11.2121 0.914185 14.6418 3.66418 17.3914 5.87508C19.7312 7.75398 21.2703 8.99619 24.8328 8.99619C28.3914 8.99619 29.9422 7.75788 32.282 5.87508C35.0437 3.66418 38.4734 0.914185 44.981 0.914185C51.4927 0.914185 54.9302 3.66418 57.68 5.87508C60.0198 7.75398 61.5706 8.99619 65.1409 8.99619C68.7112 8.99619 70.262 7.75788 72.6018 5.87508C75.3635 3.66418 78.7932 0.914185 85.3128 0.914185C87.6331 0.914185 89.5042 2.79309 89.5042 5.10559C89.5042 7.41419 87.6253 9.29699 85.3128 9.29699C81.7425 9.29699 80.1917 10.5353 77.8519 12.4181C75.0902 14.629 71.6605 17.379 65.1529 17.379H65.1409Z" fill="black"/>
<path d="M65.1409 36.23C58.6292 36.23 55.1917 33.48 52.4419 31.2691C50.1021 29.3902 48.5513 28.148 44.981 28.148C41.4107 28.148 39.8716 29.3863 37.5318 31.2691C34.7701 33.48 31.3404 36.23 24.8328 36.23C18.3211 36.23 14.8914 33.48 12.1418 31.2691C9.80203 29.3902 8.26293 28.148 4.70043 28.148C2.38013 28.148 0.509033 26.2691 0.509033 23.9566C0.509033 21.648 2.38793 19.7652 4.70043 19.7652C11.2121 19.7652 14.6418 22.5152 17.3914 24.7261C19.7312 26.605 21.2703 27.8472 24.8328 27.8472C28.3914 27.8472 29.9422 26.6089 32.282 24.7261C35.0437 22.5152 38.4734 19.7652 44.981 19.7652C51.4927 19.7652 54.9302 22.5152 57.68 24.7261C60.0198 26.605 61.5706 27.8472 65.1409 27.8472C68.7112 27.8472 70.262 26.6089 72.6018 24.7261C75.3635 22.5152 78.7932 19.7652 85.3128 19.7652C87.6331 19.7652 89.5042 21.6441 89.5042 23.9566C89.5042 26.2652 87.6253 28.148 85.3128 28.148C81.7425 28.148 80.1917 29.3863 77.8519 31.2691C75.0902 33.48 71.6605 36.23 65.1529 36.23H65.1409Z" fill="black"/>
<path d="M65.1409 55.078C58.6292 55.078 55.1917 52.328 52.4419 50.1171C50.1021 48.2382 48.5513 46.996 44.981 46.996C41.4107 46.996 39.8716 48.2343 37.5318 50.1171C34.7701 52.328 31.3404 55.078 24.8328 55.078C18.3211 55.078 14.8914 52.328 12.1418 50.1171C9.80203 48.2382 8.26293 46.996 4.70043 46.996C2.38013 46.996 0.509033 45.1171 0.509033 42.8046C0.509033 40.496 2.38793 38.6132 4.70043 38.6132C11.2121 38.6132 14.6418 41.3632 17.3914 43.5741C19.7312 45.453 21.2703 46.6952 24.8328 46.6952C28.3914 46.6952 29.9422 45.4569 32.282 43.5741C35.0437 41.3632 38.4734 38.6132 44.981 38.6132C51.4927 38.6132 54.9302 41.3632 57.68 43.5741C60.0198 45.453 61.5706 46.6952 65.1409 46.6952C68.7112 46.6952 70.262 45.4569 72.6018 43.5741C75.3635 41.3632 78.7932 38.6132 85.3128 38.6132C87.6331 38.6132 89.5042 40.4921 89.5042 42.8046C89.5042 45.1132 87.6253 46.996 85.3128 46.996C81.7425 46.996 80.1917 48.2343 77.8519 50.1171C75.0902 52.328 71.6605 55.078 65.1529 55.078H65.1409Z" fill="black"/>
</svg>
