<svg width="98" height="83" viewBox="0 0 98 83" fill="none" xmlns="http://www.w3.org/2000/svg">
<path d="M16.6407 64.6567C17.9102 64.6567 18.9376 65.684 18.9376 66.9536C18.9376 68.2231 17.9103 69.2505 16.6407 69.2505C12.0626 69.2505 7.9024 67.3794 4.8867 64.3638C1.8711 61.3482 0 57.188 0 52.6098C0 48.0316 1.8711 43.8715 4.8867 40.8558C7.9023 37.8401 12.0625 35.9691 16.6407 35.9691H17.2774C17.0626 35.2386 16.879 34.4925 16.7227 33.7386C16.3399 31.8831 16.1407 29.9808 16.1407 28.0628C16.1407 20.3128 19.2813 13.3008 24.3595 8.2188C29.4376 3.1407 36.4535 0 44.2035 0C51.8246 0 58.7385 3.0469 63.7975 7.9844C68.36 12.4375 71.4108 18.4454 72.1061 25.1524H75.9225C81.9889 25.1524 87.5045 27.6329 91.4965 31.629C95.4926 35.6212 97.9692 41.1368 97.9692 47.203C97.9692 52.6014 96.0004 57.566 92.7426 61.414C89.4379 65.3163 84.8051 68.0663 79.5546 68.9452C78.3085 69.1522 77.1288 68.3085 76.9179 67.0624C76.7109 65.8163 77.5546 64.6366 78.8007 64.4257C82.953 63.7304 86.621 61.5468 89.2417 58.453C91.8159 55.41 93.3745 51.4803 93.3745 47.203C93.3745 42.4022 91.4097 38.0428 88.2456 34.875C85.0815 31.7109 80.7183 29.7461 75.9176 29.7461H69.9567V29.7383C68.7106 29.7383 67.695 28.7461 67.6676 27.4961C67.5192 21.1406 64.8434 15.4101 60.6012 11.2731C56.3746 7.14419 50.5852 4.59729 44.1992 4.59729C37.7187 4.59729 31.8512 7.22619 27.6052 11.4723C23.3591 15.7184 20.7302 21.5853 20.7302 28.0663C20.7302 29.7225 20.8943 31.3163 21.2068 32.828C21.5193 34.3475 21.988 35.8358 22.6013 37.2694C22.7497 37.5741 22.8317 37.9139 22.8317 38.2733C22.8317 39.5428 21.8044 40.5702 20.5348 40.5702H16.6403C13.3278 40.5702 10.32 41.9257 8.13253 44.1093C5.94893 46.2929 4.59343 49.3046 4.59343 52.6171C4.59343 55.9296 5.94893 58.9374 8.13253 61.1249C10.3161 63.3085 13.3278 64.664 16.6403 64.664L16.6407 64.6567ZM53.3087 73.6879C53.3087 72.4184 54.336 71.391 55.6056 71.391C56.8712 71.391 57.9025 72.4183 57.9025 73.6879C57.9025 74.9106 58.3986 76.0238 59.2033 76.8246C60.008 77.6293 61.1174 78.1254 62.34 78.1254C63.5666 78.1254 64.6759 77.6293 65.4767 76.8246C66.2814 76.0238 66.7775 74.9144 66.7775 73.6879C66.7775 72.4613 66.2814 71.352 65.4767 70.5512C64.672 69.7504 63.5626 69.2504 62.34 69.2504H36.133C34.8674 69.2504 33.8361 68.2231 33.8361 66.9535C33.8361 65.6879 34.8634 64.6566 36.133 64.6566H62.34C64.8322 64.6566 67.09 65.6683 68.7228 67.3011C70.3595 68.9339 71.3673 71.1917 71.3673 73.6839C71.3673 76.1761 70.3556 78.4339 68.7228 80.0667C67.09 81.6995 64.8322 82.7112 62.34 82.7112C59.8478 82.7112 57.59 81.6995 55.9572 80.0667C54.3205 78.43 53.3127 76.1761 53.3127 73.6839L53.3087 73.6879ZM69.9177 49.8909C69.9177 51.1565 68.8904 52.1878 67.6208 52.1878C66.3512 52.1878 65.3239 51.1605 65.3239 49.8909C65.3239 47.3987 66.3356 45.1409 67.9684 43.5081C69.6012 41.8714 71.859 40.8636 74.3512 40.8636C76.8434 40.8636 79.1012 41.8753 80.734 43.5081C82.3668 45.1409 83.3785 47.3987 83.3785 49.8909C83.3785 52.3831 82.3668 54.6409 80.734 56.2737C79.1012 57.9065 76.8434 58.9182 74.3512 58.9182H21.7302C20.4646 58.9182 19.4333 57.8909 19.4333 56.6213C19.4333 55.3557 20.4606 54.3244 21.7302 54.3244H74.3512C75.5739 54.3244 76.6871 53.8283 77.4879 53.0236C78.2926 52.2228 78.7887 51.1134 78.7887 49.8869C78.7887 48.6604 78.2926 47.551 77.4879 46.7502C76.6832 45.9494 75.5738 45.4494 74.3512 45.4494C73.1246 45.4494 72.0153 45.9455 71.2145 46.7502C70.4137 47.5549 69.9137 48.6604 69.9137 49.8869L69.9177 49.8909ZM47.4487 38.4889C47.4487 39.7584 46.4214 40.7858 45.1518 40.7858C43.8862 40.7858 42.8549 39.7585 42.8549 38.4889C42.8549 35.9967 43.8666 33.7389 45.4994 32.1061C47.1361 30.4694 49.39 29.4616 51.8822 29.4616C54.3744 29.4616 56.6322 30.4733 58.265 32.1061C59.8978 33.7389 60.9095 35.9967 60.9095 38.4889C60.9095 40.9811 59.8978 43.2389 58.265 44.8717C56.6283 46.5084 54.3744 47.5162 51.8822 47.5162H31.6092C30.3436 47.5162 29.3123 46.4889 29.3123 45.2193C29.3123 43.9537 30.3396 42.9224 31.6092 42.9224H51.8822C53.1049 42.9224 54.2181 42.4263 55.0189 41.6216C55.8236 40.8169 56.3197 39.7075 56.3197 38.4849C56.3197 37.2623 55.8236 36.149 55.0189 35.3482C54.2181 34.5474 53.1087 34.0474 51.8822 34.0474C50.6556 34.0474 49.5463 34.5435 48.7455 35.3482C47.9447 36.1529 47.4447 37.2623 47.4447 38.4849L47.4487 38.4889Z" fill="black"/>
</svg>
