<svg width="151" height="151" viewBox="0 0 151 151" fill="none" xmlns="http://www.w3.org/2000/svg">
<path fill-rule="evenodd" clip-rule="evenodd" d="M64.7172 21.5714C63.3174 21.5708 61.9479 21.9786 60.7766 22.745C59.6053 23.5113 58.6831 24.6029 58.1232 25.8857C57.5566 27.1841 56.7399 28.3581 55.7195 29.3409C54.6992 30.3236 53.4953 31.0957 52.1765 31.6132C50.8577 32.1307 49.45 32.3833 48.0335 32.3567C46.6171 32.3302 45.2198 32.0249 43.9214 31.4583C42.623 30.8918 41.4489 30.075 40.4661 29.0547C39.4833 28.0344 38.7112 26.8306 38.1937 25.5119C37.6762 24.1932 37.4235 22.7855 37.4501 21.3691C37.4766 19.9528 37.7819 18.5555 38.3485 17.2572C40.4227 12.5048 43.7431 8.40161 47.9582 5.38166C52.1734 2.36171 57.1266 0.537379 62.2937 0.101714C67.4608 -0.333951 72.6496 0.635257 77.3109 2.90678C81.9723 5.1783 85.9329 8.66763 88.7736 13.0055C91.6143 17.3435 93.2294 22.3686 93.448 27.5492C93.6667 32.7298 92.4807 37.8731 90.0156 42.4349C87.5506 46.9967 83.8981 50.8073 79.4447 53.4635C74.9913 56.1197 69.9026 57.5226 64.7172 57.5238H25.1678C22.3071 57.5238 19.5636 56.3875 17.5408 54.3648C15.518 52.342 14.3816 49.5986 14.3816 46.7381C14.3816 43.8776 15.518 41.1342 17.5408 39.1114C19.5636 37.0887 22.3071 35.9524 25.1678 35.9524H64.7172C66.6243 35.9524 68.4533 35.1948 69.8018 33.8463C71.1504 32.4979 71.908 30.6689 71.908 28.7619C71.908 26.8549 71.1504 25.026 69.8018 23.6775C68.4533 22.329 66.6243 21.5714 64.7172 21.5714ZM122.244 50.3333C120.844 50.3327 119.474 50.7405 118.303 51.5069C117.132 52.2732 116.21 53.3648 115.65 54.6476C114.505 57.2698 112.366 59.33 109.703 60.3751C107.04 61.4202 104.07 61.3645 101.448 60.2202C98.8255 59.076 96.7652 56.937 95.7201 54.2738C94.6749 51.6105 94.7306 48.6412 95.8749 46.0191C97.9491 41.2667 101.269 37.1635 105.485 34.1436C109.7 31.1236 114.653 29.2993 119.82 28.8636C124.987 28.4279 130.176 29.3972 134.837 31.6687C139.499 33.9402 143.459 37.4295 146.3 41.7674C149.141 46.1054 150.756 51.1305 150.974 56.3111C151.193 61.4916 150.007 66.635 147.542 71.1968C145.077 75.7586 141.424 79.5692 136.971 82.2254C132.518 84.8816 127.429 86.2845 122.244 86.2857H10.7862C7.92552 86.2857 5.18201 85.1494 3.1592 83.1267C1.1364 81.1039 0 78.3605 0 75.5C0 72.6395 1.1364 69.8961 3.1592 67.8733C5.18201 65.8506 7.92552 64.7143 10.7862 64.7143H122.244C124.151 64.7143 125.98 63.9567 127.328 62.6082C128.677 61.2598 129.434 59.4308 129.434 57.5238C129.434 55.6168 128.677 53.7879 127.328 52.4394C125.98 51.0909 124.151 50.3333 122.244 50.3333ZM86.8864 125.114C87.4049 126.302 88.235 127.328 89.2887 128.083C90.3424 128.838 91.5806 129.294 92.8723 129.403C94.164 129.512 95.4611 129.27 96.6264 128.702C97.7917 128.134 98.7819 127.262 99.4922 126.178C100.202 125.094 100.606 123.837 100.661 122.542C100.716 121.247 100.42 119.962 99.8038 118.821C99.1878 117.681 98.2749 116.728 97.1618 116.063C96.0487 115.399 94.7767 115.048 93.4804 115.048H46.7402C43.8795 115.048 41.136 113.911 39.1132 111.889C37.0904 109.866 35.954 107.122 35.954 104.262C35.954 101.401 37.0904 98.658 39.1132 96.6352C41.136 94.6125 43.8795 93.4762 46.7402 93.4762H93.4804C98.6661 93.4761 103.755 94.8779 108.21 97.5333C112.664 100.189 116.317 103.999 118.783 108.56C121.25 113.122 122.436 118.265 122.219 123.446C122.001 128.627 120.386 133.653 117.546 137.991C114.706 142.33 110.745 145.82 106.084 148.092C101.422 150.364 96.2333 151.334 91.0659 150.898C85.8985 150.463 80.9449 148.639 76.7293 145.619C72.5138 142.599 69.1932 138.495 67.1189 133.743C66.5217 132.44 66.1901 131.032 66.1434 129.599C66.0967 128.167 66.3359 126.74 66.847 125.401C67.3581 124.063 68.1309 122.839 69.1201 121.802C70.1094 120.766 71.2953 119.936 72.6087 119.363C73.922 118.79 75.3365 118.484 76.7694 118.464C78.2023 118.443 79.6249 118.708 80.9541 119.244C82.2833 119.779 83.4926 120.574 84.5111 121.582C85.5297 122.59 86.3372 123.791 86.8864 125.114Z" fill="white"/>
</svg>
